<svg width="122" height="50" viewBox="0 0 122 50" fill="none" xmlns="http://www.w3.org/2000/svg">
<path d="M90.8395 35.7595H88.1368V49.8669H90.8395V41.2162H92.5963C92.9085 39.9265 93.0301 39.4181 93.068 39.2531C93.1355 38.9603 93.1098 38.9537 91.9882 38.9537H90.8395V35.7595Z" fill="#F1F5F2"/>
<path d="M110.705 41.7485V39.3529C109.501 39.3596 108.841 39.4647 108.463 39.5898C108.084 39.7163 107.425 40.0583 106.998 40.3511C106.57 40.6439 106.014 41.1829 105.763 41.5489C105.513 41.9149 105.203 42.4845 105.076 42.8132C104.884 43.315 104.845 43.9445 104.837 46.6728L104.826 49.9335L107.191 50L107.225 44.1456C107.23 43.4869 108.019 42.5633 108.494 42.2469C108.97 41.9304 109.499 41.859 109.995 41.8137L110.705 41.7485Z" fill="#F1F5F2"/>
<path d="M84.8597 39.6311C84.284 39.5512 83.2191 39.4913 82.4948 39.498C81.7705 39.5046 80.9651 39.5699 80.7042 39.6417C80.4434 39.7149 80.0218 39.9345 79.7664 40.1288C79.5096 40.3245 79.161 40.7836 78.9907 41.1496C78.7799 41.6021 78.6785 42.0706 78.6745 42.6136C78.6704 43.2298 78.7407 43.5186 78.9812 43.8779C79.1867 44.1827 79.5948 44.4915 80.1677 44.771C80.6488 45.0065 81.6502 45.3539 82.3935 45.5429C83.1367 45.7332 83.9205 45.9608 84.134 46.0473C84.3489 46.1351 84.5759 46.3121 84.6408 46.4399C84.7057 46.5677 84.7273 46.7926 84.6908 46.939C84.6543 47.0854 84.4259 47.3037 84.184 47.4234C83.8178 47.6071 83.4827 47.6284 82.157 47.5565C81.284 47.5099 80.4934 47.4381 80.4002 47.3981C80.3212 47.3981 80.0623 47.683 79.7583 48.3298C79.4975 48.8821 79.3164 49.3639 79.3529 49.3985C79.3894 49.4344 79.9367 49.5236 80.5691 49.5968C81.2015 49.6713 82.2191 49.7325 82.8327 49.7325C83.5894 49.7339 84.2084 49.6487 84.7584 49.4677C85.2043 49.3213 85.7543 49.0671 85.9814 48.902C86.2084 48.737 86.5422 48.3777 86.7246 48.1035C86.907 47.8294 87.1233 47.3502 87.2057 47.0388C87.3152 46.6236 87.3152 46.2948 87.2043 45.8077C87.103 45.3606 86.9097 45.0025 86.6151 44.7164C86.3746 44.4822 85.9043 44.1721 85.5692 44.0257C85.234 43.8806 84.2773 43.5785 83.4408 43.3536C82.6043 43.13 81.7524 42.9902 81.5294 42.8798C81.2764 42.7935 81.1056 42.5178 81.1056 42.3141C81.1029 42.1864 81.2313 41.9615 81.3894 41.8151C81.6016 41.6208 81.8651 41.5489 82.3732 41.5489C82.7556 41.5489 83.5854 41.5968 84.2178 41.654L85.3665 41.7592C85.8908 40.3178 86.0111 39.8706 85.9746 39.8374C85.9381 39.8028 85.4354 39.7096 84.8597 39.6311Z" fill="#F1F5F2"/>
<path fill-rule="evenodd" clip-rule="evenodd" d="M103.811 44.7164C103.811 47.6002 101.432 49.9379 98.4975 49.9379C95.5628 49.9379 93.1838 47.6002 93.1838 44.7164C93.1838 41.8326 95.5628 39.4949 98.4975 39.4949C101.432 39.4949 103.811 41.8326 103.811 44.7164ZM98.4975 47.5645C100.074 47.5645 101.353 46.2894 101.353 44.7164C101.353 43.1434 100.074 41.8683 98.4975 41.8683C96.9206 41.8683 95.6423 43.1434 95.6423 44.7164C95.6423 46.2894 96.9206 47.5645 98.4975 47.5645Z" fill="#F1F5F2"/>
<path fill-rule="evenodd" clip-rule="evenodd" d="M116.921 39.4421C117.18 39.4727 117.729 39.5885 118.137 39.7016C118.545 39.8134 119.208 40.1248 119.609 40.3937C120.009 40.6638 120.544 41.1829 120.798 41.5489C121.052 41.9149 121.382 42.5431 121.531 42.9463C121.681 43.3496 121.809 44.0376 121.817 44.4768C121.825 44.916 121.791 45.3499 121.741 45.4417C121.677 45.5615 121.098 45.6134 119.658 45.6254C118.562 45.6347 116.759 45.68 113.641 45.8077C114.653 47.2204 115.633 47.5774 116.425 47.6108C117.155 47.6054 117.938 47.4857 118.816 46.6063L119.794 46.9909C120.332 47.2012 120.833 47.4261 120.908 47.49C120.993 47.5632 120.818 47.8307 120.435 48.214C120.099 48.5494 119.554 48.9806 119.218 49.1722C118.883 49.3652 118.337 49.6021 118.002 49.6992C117.667 49.7977 116.968 49.8776 116.448 49.8763C115.917 49.8763 115.206 49.7778 114.826 49.6513C114.455 49.5276 113.937 49.2947 113.678 49.1336C113.418 48.9713 112.934 48.5467 112.603 48.1887C112.272 47.8307 111.851 47.2092 111.666 46.8059C111.426 46.2855 111.313 45.7665 111.272 45.0092C111.232 44.2639 111.282 43.7249 111.437 43.2125C111.56 42.8092 111.803 42.2409 111.978 41.9482C112.152 41.6554 112.591 41.1496 112.952 40.8236C113.314 40.4975 113.945 40.0836 114.353 39.9039C114.762 39.7229 115.401 39.5339 115.772 39.482C116.144 39.4301 116.662 39.4115 116.921 39.4421ZM116.425 41.614C115.141 41.614 114.045 42.415 113.611 43.5434L119.228 43.5127C118.786 42.4005 117.698 41.614 116.425 41.614Z" fill="#F1F5F2"/>
<path d="M45.2926 0H39.02V33.3474H45.2926V0Z" fill="#F1F5F2"/>
<path d="M78.2237 2.49326C74.5793 0.800961 73.3781 0.311658 73.2056 0.311658C73.0018 0.311658 72.892 6.07732 72.892 16.9853V33.659L78.0669 33.5032C78.3649 18.6496 78.4401 17.8206 79.0078 16.8544C79.3031 16.2833 80.0386 15.3502 80.895 14.8734C82.17 14.2878 82.9416 14.1906 84.5432 14.2405C86.1521 14.3215 87.0072 14.5198 88.0328 15.1899C88.7541 15.6605 89.4485 16.6612 89.7496 17.2191C90.2232 18.0917 90.3079 19.2916 90.3769 25.9455L90.4553 33.659L95.6302 33.5032C95.6302 18.1416 95.5674 17.1349 95.0249 15.7387C94.6924 14.8817 93.7578 13.4792 92.9486 12.6221C92.0266 11.6466 90.7313 10.7179 89.4768 10.1382C87.9243 9.41829 86.9144 9.18455 84.9668 9.08794C83.2073 9.00067 81.9434 9.12222 80.7328 9.48686C79.7825 9.77358 78.8322 10.0728 78.6158 10.1476C78.3147 10.2535 78.2237 9.37155 78.2237 6.38898V2.49326Z" fill="#F1F5F2"/>
<path fill-rule="evenodd" clip-rule="evenodd" d="M52.4416 31.1709C52.3537 31.1709 52.158 33.2663 52.0356 39.4216L49.6144 40.6713C48.2815 41.357 47.1148 41.8494 47.0176 41.7621C46.9203 41.6749 46.9446 27.0437 46.9509 21.0443C46.9509 14.3155 52.4901 8.86076 59.323 8.86076C66.156 8.86076 71.6952 14.3155 71.6952 21.0443C71.6952 27.7731 66.156 33.2278 59.323 33.2278C56.7762 33.2278 54.4091 32.47 52.4416 31.1709ZM59.323 28.1646C63.1775 28.1646 66.3022 25.0476 66.3022 21.2025C66.3022 17.3575 63.1775 14.2405 59.323 14.2405C55.4686 14.2405 52.3439 17.3575 52.3439 21.2025C52.3439 25.0476 55.4686 28.1646 59.323 28.1646Z" fill="#F1F5F2"/>
<path fill-rule="evenodd" clip-rule="evenodd" d="M52.4416 31.1709C52.3537 31.1709 52.158 33.2663 52.0356 39.4216L49.6144 40.6713C48.2815 41.357 47.1148 41.8494 47.0176 41.7621C46.9203 41.6749 46.9446 27.0437 46.9509 21.0443C46.9509 14.3155 52.4901 8.86076 59.323 8.86076C66.156 8.86076 71.6952 14.3155 71.6952 21.0443C71.6952 27.7731 66.156 33.2278 59.323 33.2278C56.7762 33.2278 54.4091 32.47 52.4416 31.1709ZM59.323 28.1646C63.1775 28.1646 66.3022 25.0476 66.3022 21.2025C66.3022 17.3575 63.1775 14.2405 59.323 14.2405C55.4686 14.2405 52.3439 17.3575 52.3439 21.2025C52.3439 25.0476 55.4686 28.1646 59.323 28.1646Z" fill="#F1F5F2"/>
<path fill-rule="evenodd" clip-rule="evenodd" d="M52.5082 31.1709C52.4204 31.1709 52.2246 33.2663 52.1023 39.4216L49.6811 40.6713C48.3482 41.357 47.1815 41.8494 47.0843 41.7621C46.987 41.6749 47.0113 27.0437 47.0176 21.0443C47.0176 14.3155 52.5568 8.86076 59.3897 8.86076C66.2227 8.86076 71.7619 14.3155 71.7619 21.0443C71.7619 27.7731 66.2227 33.2278 59.3897 33.2278C56.8429 33.2278 54.4758 32.47 52.5082 31.1709ZM59.3897 28.1646C63.2442 28.1646 66.3689 25.0476 66.3689 21.2025C66.3689 17.3575 63.2442 14.2405 59.3897 14.2405C55.5352 14.2405 52.4106 17.3575 52.4106 21.2025C52.4106 25.0476 55.5352 28.1646 59.3897 28.1646Z" fill="#F1F5F2"/>
<path fill-rule="evenodd" clip-rule="evenodd" d="M52.5082 31.1709C52.4204 31.1709 52.2246 33.2663 52.1023 39.4216L49.6811 40.6713C48.3482 41.357 47.1815 41.8494 47.0843 41.7621C46.987 41.6749 47.0113 27.0437 47.0176 21.0443C47.0176 14.3155 52.5568 8.86076 59.3897 8.86076C66.2227 8.86076 71.7619 14.3155 71.7619 21.0443C71.7619 27.7731 66.2227 33.2278 59.3897 33.2278C56.8429 33.2278 54.4758 32.47 52.5082 31.1709ZM59.3897 28.1646C63.2442 28.1646 66.3689 25.0476 66.3689 21.2025C66.3689 17.3575 63.2442 14.2405 59.3897 14.2405C55.5352 14.2405 52.4106 17.3575 52.4106 21.2025C52.4106 25.0476 55.5352 28.1646 59.3897 28.1646Z" fill="#F1F5F2"/>
<path fill-rule="evenodd" clip-rule="evenodd" d="M109.288 33.3615C102.455 33.3615 96.9154 27.9068 96.9154 21.178C96.9154 14.4492 102.455 8.99444 109.288 8.99444C116.12 8.99444 121.66 14.4492 121.66 21.178C121.663 23.8364 121.73 31.3203 121.363 33.639L118.854 33.5455C116.37 33.452 116.345 33.4426 116.267 32.5949C116.223 32.1243 116 31.6343 115.872 31.6841C113.567 33.0867 112.117 33.4621 109.288 33.3615ZM109.288 28.14C113.142 28.14 116.267 25.023 116.267 21.178C116.267 17.333 113.142 14.216 109.288 14.216C105.433 14.216 102.308 17.333 102.308 21.178C102.308 25.023 105.433 28.14 109.288 28.14Z" fill="#F1F5F2"/>
<path d="M15.8032 4.20616C14.5498 6.57696 12.085 11.3059 10.3245 14.715C8.5681 18.1241 6.59266 21.8255 6.9504 22.0816C7.30814 22.3378 11.2826 18.8682 15.1784 15.6262C19.2697 12.4231 22.5702 9.65158 22.7421 9.27326C22.9991 8.93772 23.3554 8.44848 23.3554 7.58255C23.3554 6.42238 22.5856 4.45837 21.2735 2.52475C20.2675 1.0409 19.3691 0 18.807 0C18.2448 0 17.3123 1.34775 15.8032 4.20616ZM22.1957 14.6351C20.2591 17.0101 18.9603 18.3928 18.9092 19.6737C18.8581 20.9545 19.7031 21.6143 19.7783 21.689C20.4142 22.3212 23.3605 23.4724 28.2104 25.3093C32.2472 26.8436 35.8443 28.2252 36.3641 28.3177C37.0809 28.4438 37.3073 28.2798 37.3073 27.6409C37.3073 27.1785 34.7263 23.198 31.7878 18.7002C28.8494 14.2066 26.7795 10.4516 26.1319 10.4274C25.4843 10.4032 24.0946 12.3106 22.1957 14.6351ZM5.5919 25.9301C5.09307 26.115 4.414 26.6236 4.08703 27.0608C3.75588 27.4938 2.70373 29.3181 1.7438 31.1088C0.783872 32.8995 0 34.6482 0 34.9971C0 35.346 0.128052 35.6837 0.523979 35.8504C0.919905 36.0171 5.10146 35.2241 10.0604 34.1858C15.0193 33.1475 21.3364 31.8024 24.103 31.1971C26.8696 30.5918 30.3557 29.6996 30.8168 29.5105C30.919 29.4686 31.4301 29.2031 30.8168 29.0494C30.4689 28.9317 24.7444 28.2126 18.8632 27.2626C12.9863 26.3126 7.7968 25.5475 7.3357 25.5644C6.8746 25.5812 6.09073 25.7451 5.5919 25.9301Z" fill="#F1F5F2"/>
</svg>
